<svg xmlns="http://www.w3.org/2000/svg" viewBox="0 0 128 128" width="128" height="128">
  <defs>
    <linearGradient id="fluentGradient" x1="0%" y1="0%" x2="100%" y2="100%">
      <stop offset="0%" style="stop-color:#10B981;stop-opacity:1" />
      <stop offset="100%" style="stop-color:#059669;stop-opacity:1" />
    </linearGradient>
  </defs>
  
  <!-- Background -->
  <circle cx="64" cy="64" r="60" fill="url(#fluentGradient)" opacity="0.1"/>
  
  <!-- Shield Shape (Validation) -->
  <path d="M 64 20 L 90 35 L 90 65 Q 90 90 64 105 Q 38 90 38 65 L 38 35 Z" 
        fill="#10B981" stroke="#10B981" stroke-width="2" opacity="0.2"/>
  <path d="M 64 25 L 85 37 L 85 63 Q 85 85 64 98 Q 43 85 43 63 L 43 37 Z" 
        fill="none" stroke="#10B981" stroke-width="3"/>
  
  <!-- Checkmark -->
  <path d="M 54 64 L 60 72 L 76 50" 
        fill="none" stroke="#10B981" stroke-width="4" stroke-linecap="round" stroke-linejoin="round"/>
  
  <!-- Validation Rules (Lines) -->
  <line x1="48" y1="45" x2="62" y2="45" stroke="#059669" stroke-width="2" opacity="0.6"/>
  <line x1="48" y1="52" x2="58" y2="52" stroke="#059669" stroke-width="2" opacity="0.6"/>
  <line x1="48" y1="59" x2="60" y2="59" stroke="#059669" stroke-width="2" opacity="0.6"/>
  
  <!-- Title -->
  <text x="64" y="118" font-family="Arial, sans-serif" font-size="10" 
        fill="#10B981" text-anchor="middle" font-weight="bold">FluentValidation</text>
</svg>
